<svg xmlns="http://www.w3.org/2000/svg" xmlns:xlink="http://www.w3.org/1999/xlink" viewBox="0 0 400 400"><defs><style>.cls-1,.cls-5{fill:#fff;}.cls-2{fill:url(#New_Gradient_Swatch_1);}.cls-3{fill:url(#linear-gradient);}.cls-4,.cls-5{stroke:#000;stroke-miterlimit:10;}.cls-4{fill:url(#radial-gradient);}.cls-6{font-size:180px;font-family:CambriaMath, Cambria Math;}.cls-7{opacity:0.81;fill:url(#radial-gradient-2);}</style><linearGradient id="New_Gradient_Swatch_1" x1="199.76" y1="367.3" x2="199.76" y2="34.3" gradientUnits="userSpaceOnUse"><stop offset="0" stop-color="#eed8a0"/><stop offset="0.5" stop-color="#b58713"/><stop offset="1" stop-color="#f1e6a5"/></linearGradient><linearGradient id="linear-gradient" x1="200.26" y1="76.33" x2="200.26" y2="342.33" gradientUnits="userSpaceOnUse"><stop offset="0" stop-color="#b58713"/><stop offset="0.5" stop-color="#eed8a0"/><stop offset="0.59" stop-color="#f1e6a5"/><stop offset="1" stop-color="#b58713"/></linearGradient><radialGradient id="radial-gradient" cx="199.95" cy="226.53" r="88.97" gradientUnits="userSpaceOnUse"><stop offset="0" stop-color="#e30020"/><stop offset="1" stop-color="#b00c18"/></radialGradient><radialGradient id="radial-gradient-2" cx="199.82" cy="227.03" r="88.97" xlink:href="#radial-gradient"/></defs><title>Artboard 1</title><g id="logo"><circle id="white" class="cls-1" cx="200" cy="200" r="175"/><path id="outGold" class="cls-2" d="M199.76,34.3a166.5,166.5,0,1,0,166.5,166.5A166.5,166.5,0,0,0,199.76,34.3Zm0,299.5a133,133,0,1,1,133-133A133,133,0,0,1,199.76,333.8Z"/><path id="inGold" class="cls-3" d="M200.26,67.3a133,133,0,1,0,133,133A133,133,0,0,0,200.26,67.3Zm0,254a120,120,0,1,1,120-120A120,120,0,0,1,200.26,321.3Z"/><g id="inLogo"><path id="red" class="cls-4" d="M84.76,210a115,115,0,0,0,229,0Z"/><path id="white-2" data-name="white" class="cls-5" d="M314.26,199.3a115,115,0,0,0-230,0q0,5.41.5,10.7h229Q314.26,204.72,314.26,199.3Z"/></g><g id="T"><text class="cls-6" transform="translate(124.13 272.89) scale(1.41 1)">T</text><rect x="132.3" y="136" width="134.5" height="22.91"/></g><path id="red-2" data-name="red" class="cls-7" d="M84.64,210.5a115,115,0,0,0,229,0Z"/></g></svg>